<?xml version="1.0" encoding="utf-8"?>
<!-- Generator: Adobe Illustrator 16.0.4, SVG Export Plug-In . SVG Version: 6.00 Build 0)  -->
<!DOCTYPE svg PUBLIC "-//W3C//DTD SVG 1.0//EN" "http://www.w3.org/TR/2001/REC-SVG-20010904/DTD/svg10.dtd">
<svg version="1.0" xmlns="http://www.w3.org/2000/svg" xmlns:xlink="http://www.w3.org/1999/xlink" x="0px" y="0px" width="142px"
	 height="144px" viewBox="0 0 142 144" enable-background="new 0 0 142 144" xml:space="preserve">
<g id="Broadcast" display="none">
	<g display="inline">
		<g>
			<path d="M117.194,103.287H24.806c-9.167,0-16.626-7.459-16.626-16.626V36.84c0-9.167,7.459-16.626,16.626-16.626h92.388
				c9.168,0,16.626,7.459,16.626,16.626v49.821C133.82,95.828,126.362,103.287,117.194,103.287z M24.806,31.298
				c-3.056,0-5.542,2.486-5.542,5.542v49.821c0,3.057,2.486,5.542,5.542,5.542h92.388c3.056,0,5.542-2.485,5.542-5.542V36.84
				c0-3.056-2.486-5.542-5.542-5.542H24.806z"/>
		</g>
		<path fill-rule="evenodd" clip-rule="evenodd" d="M46.853,112.438h48.294v11.348H46.853V112.438z"/>
	</g>
</g>
<g id="Event" display="none">
	<g display="inline">
		<g>
			<path d="M71,53.47l5.416,11.54l12.111,1.853l-8.763,8.983l2.069,12.685L71,82.541L60.167,88.53l2.069-12.685l-8.763-8.983
				l12.111-1.853L71,53.47z"/>
		</g>
	</g>
	<g display="inline">
		<path d="M139.145,117.575H2.825V77.993l5.946,0.011c5.199,0,5.199-4.208,5.199-6.004c0-1.482,0-5.995-5.551-5.995h-5.5l-0.093-5.5
			V26.425h136.32v39.581h-5.5C131.547,66.043,128,66.873,128,72c0,5.095,3.555,5.942,5.675,5.994h5.5l-0.03,5.5V117.575z
			 M13.825,106.575h114.32V88.066C122.549,86.189,117,81.308,117,72c0-9.309,5.548-14.19,11.145-16.066V37.425H13.825V55.81
			c6.137,1.874,11.145,7.079,11.145,16.19c0,9.258-5.055,14.486-11.145,16.285V106.575z"/>
	</g>
</g>
<g id="Menu" display="none">
	<g display="inline">
		<path fill-rule="evenodd" clip-rule="evenodd" d="M22.188,27.624h97.625v17.865H22.188V27.624z"/>
		<path fill-rule="evenodd" clip-rule="evenodd" d="M22.188,63.124h97.625v17.75H22.188V63.124z"/>
		<path fill-rule="evenodd" clip-rule="evenodd" d="M22.188,98.509h97.625v17.867H22.188V98.509z"/>
	</g>
</g>
<g id="News" display="none">
	<g display="inline">
		<path d="M44.715,141.839v-41.637c-20.309-5.4-36.585-25.675-36.523-46.594l-0.012,0l0.03-0.797
			c0.546-11.768,5.826-22.765,14.867-30.966c8.975-8.14,20.682-12.623,32.965-12.623H85.96c26.839,0,47.862,19.575,47.862,44.565
			c0,24.676-21.023,46.486-45.514,47.813L44.715,141.839z M19.191,53.714c-0.012,17.312,14.525,34.04,31.82,36.573l4.703,0.689
			v25.74L83.93,90.672l2.139-0.008c19.579-0.072,36.754-17.304,36.754-36.877c0-18.821-16.192-33.565-36.862-33.565H56.041
			c-19.4,0-35.879,14.742-36.833,32.904l0.006,0.229L19.191,53.714z"/>
	</g>
</g>
<g id="Album" display="none">
	<g display="inline">
		<g>
			<path d="M71,134.94c-34.705,0-62.94-28.235-62.94-62.94S36.295,9.06,71,9.06S133.94,37.295,133.94,72S105.705,134.94,71,134.94z
				 M71,19.06c-29.191,0-52.94,23.749-52.94,52.94S41.809,124.94,71,124.94s52.94-23.749,52.94-52.94S100.191,19.06,71,19.06z"/>
		</g>
		<g>
			<path fill-rule="evenodd" clip-rule="evenodd" d="M71,66.953c2.787,0,5.047,2.26,5.047,5.047c0,2.788-2.26,5.047-5.047,5.047
				c-2.788,0-5.047-2.259-5.047-5.047C65.953,69.213,68.212,66.953,71,66.953z"/>
		</g>
		<g>
			<path d="M71,101.849c-16.458,0-29.849-13.39-29.849-29.849S54.542,42.151,71,42.151S100.849,55.542,100.849,72
				S87.458,101.849,71,101.849z M71,51.151c-11.496,0-20.849,9.353-20.849,20.849S59.504,92.849,71,92.849S91.849,83.496,91.849,72
				S82.496,51.151,71,51.151z"/>
		</g>
	</g>
</g>
<g id="Search">
	<g>
		<path fill="#010101" d="M19.155,117.09l6.363,6.36c2.508,2.511,6.577,2.511,9.087,0L60.254,97.8
			c6.176,3.607,13.36,5.685,21.029,5.685c23.064,0,43.051-19.984,43.051-43.051s-18.7-41.767-41.764-41.767
			c-23.069,0-43.056,19.986-43.056,43.051c0,7.94,2.215,15.361,6.063,21.681L20.065,108.91
			C17.554,111.42,16.645,114.579,19.155,117.09z M81.283,90.634c-15.971,0-28.916-12.946-28.916-28.916
			c0-15.97,14.229-30.2,30.203-30.2c15.965,0,28.911,12.946,28.911,28.916C111.48,76.404,97.251,90.634,81.283,90.634z"/>
	</g>
</g>
</svg>
